<?xml version="1.0" encoding="UTF-8"?>
<!-- Created with Inkscape (http://www.inkscape.org/) -->
<svg width="3840" height="2160" version="1.1" viewBox="0 0 3840 2160" xmlns="http://www.w3.org/2000/svg">
 <g transform="translate(-357.17 194.68)">
  <g transform="matrix(.46452 0 0 .46452 2089.7 655.87)">
   <path d="m-384.5-1207c55.206 212.54 69.653 439.72 124.03 654.21 16.811 43.843-49.325-198.49-50.371-263.27-21.911-130.75-38.044-262.98-73.66-390.94zm34.924 25.772c103.29 169.5 205.62 345.46 307.45 517.46 42.044 79.59-53.419 134.76-115.83 154.31 65.249-18.66 158.29-74.917 116.76-154.69-102.75-172.01-201.84-347.03-308.37-517.08zm1002.5 97.37c-40.95 34.329-30.563 32.111-35.696 88.793-17.167 88.633-32.992 180.32-83.373 257.29-53.332-29.907-153 35.716-29.736-9.1894 55.578-2.0085 15.024 58.285 15.775 88.904-20.259 70.85-8.6191 153.77 62.854 192.16 149.56 100.08 310.09 189.95 454.75 293.7-151.34-114.06-325.59-200.35-478.13-314.32-82.89-64.086-33.342-170.26-22.871-254.21 64.099-98.025 72.07-224.52 96.174-331.67-1.7075 13.634 17.938-22.909 20.256-11.45zm2.4812-1.1259c133.7 295.95 267.14 592.36 388.26 893.7-23.195 12.654 45.814 35.926-4.8086-15.834-121.23-295.32-249.52-588.18-383.45-877.87zm-894.02 561.66c54.655 30.761 98.089 19.953 13.912 10.995zm575.35 469.98c-119.33 86.88-217.09 251.48-381.63 242.89-94.887-10.082-82.096-6.3574 5.8555 1.3223 161.58 4.7628 260.38-158.51 375.78-244.21zm746.67 65.033v2e-3zm0 2e-3c60.952 53.513-6.2621 131.38-32.727 185.02-36.436 40.959-68.201 97.898-128.73 73.197-201.29 25.239-402.03 57.802-602 92.98-342.88 38.322-680.36 120.63-1022.1 163.01-57.53 33.541-144.67 119.03-65.553 183.65 87.228 102.31 227.79 67.556 345.7 75.992 265.93 6.2101 532.3 3.8174 797.98 9.0001 31.777 12.593 110.2-12.572 102.58 43.262-191.44 201.08-410.61 374.31-606.91 570.88-63.826 45.663-140 98.567-127.15 189.36 5.5525 76.567 16.456 156.9 36.223 228.99 54.48 40.915-44.622-37.533-16.564-86.088-17.019-95.926-49.957-232.78 56.129-291.16 141.49-114.23 266.43-249.74 405.06-368.38 85.043-83.16 186.99-155.49 256.16-251.34-3.8291-49.569-70.694-22.244-100.42-35.682-201.08-7.302-403.06-1.4262-604.49-7.207-153.1-7.7184-309.64 8.2928-460.67-17.996-67.823-28.654-173.42-130.61-73.5-190.86 33.071-80.881 134.2-50.543 200.66-71.617 309.71-49.828 617.79-112.98 929.02-151.34 190.27-33.54 381.09-65.338 572.91-85.793 72.222 21.225 114.32-95.188 144.62-144.33 22.574-37.105 33.17-82.662-6.2734-113.55zm-1088.2 154.87c27.734 22.45 33.027 21.125 0 0zm975.35 110.41c-21.219 95.741-97.579 167.56-142.93 252.79-247.61 371.54-513.1 734.13-772.19 1095.6 305.92-423.87 616.25-845.76 896.88-1287.1 10.385-17.446 16.003-43.409 18.236-61.311zm-1808.5 356.56c29.292 3.458 48.414 0.24322 4.3793 0zm1508.6 577.16c-120.95 163.57-305.82 263.68-459.93 392.61-83.983 70.351-187.52 127.49-252.63 215.22-93.097 29.195-79.034 33.729 1.3965-1.3047 90.006-108.23 220.07-181.43 328.85-271.62 128.76-108.02 286.97-195.05 382.32-334.89zm-713.34 612.93c11.344 7.304 27.758 5.3077 0 0zm-139.21 16.914c36.133 7.9257 73.369 1.4811 11.971 1.9961l-8.2145-1.3698z" fill="#fff" stop-color="#000000"/>
   <path d="m655.56-1180.9c106.24 72.396 188.6 200.31 283.45 296.26 110.01 113.36 205.01 243.86 306.89 361.77 26.929 107.34 137.15 193.78 143.69 313.96 67.738 74.463 122.29 172.71 162.88 269.49 68.623 153.89 89.632 325.47 104.17 489.81-6.0857 58.632-8.5357 146.78-24.05 214.59-64.724 364.61-275.3 711.73-589.82 912.4-148.3 64.949-262.57 209.45-430.7 225.95-101.44-61.019-108.09 189-190.78 65.465-59.919-34.305-11.374-187.05-18.374-136.3-48.909 46.925 27.438 206.96 87.12 159.81 31.944-131.6 161.17-62.936 249.19-126.59 125.64-71.234 241.05-157.74 367.13-228.22 329.74-249.77 536.68-655.04 547.45-1068.3 10.653-42.705-11.355-119.35-12.392-175.21-27.086-208.25-101.04-414.48-230.11-581.21-51.108-76.443-69.269-198.6-138.32-277.04-36.218-94.619-125.25-167.99-187.72-255-129.05-157.6-273.41-303.09-403.96-458.69l-13.19-3.1407zm-969.18-26.386c97.888 88.648 222.09 153.18 327.81 236.15 66.294 66.092 260.68 123.22 238.6 217.47-91.917 40.797-166.2 121.93-258.61 156.45-33.685 46.619-124.28 92.333-24.565 29.792 69.53-71.378 176.51-102.49 253.5-172.85 53.161-59.974 135.39-18.159 175.14 40.41-4.1405 106.66-67.413 248.35 69.473 306.3 207.94 114.48 396.15 265.39 601.22 383.19 59.355-10.501 69.026 118.53 46.799 23.018-168.15-88.894-326.76-206.11-488.02-311.07-83.529-74.068-252.74-99.612-250.23-237.47 22.712-85.428 55.567-207.6-66.352-230.84-108.62-53.928-199.07-158.81-312.86-216.32-100.08-80.012-216.8-139.19-311.91-224.22zm969.32 24.924c-39.845 57.437 61.598 128.75 65.449 197.59 108.57 259.26 223.55 515.26 335.37 772.96 50.729 153.13-128-339.84-76.516-181.65-118.22-246.31-212.74-504.83-330.01-750.93-18.755-4.4802-3.1701-34.025 5.7012-37.978zm-15.665 30.186c-7.59 44.281 11.564 98.055-1.2384 22.804 0.45533-2.2801 0.58947-34.345 1.2384-22.804zm6.464 77.191c-16.929 86.842-20.251 125.51 0 0zm-18 88.023c-0.51625 3.0712 3.0712-0.51625 0 0zm-50 111c-0.51625 3.0712 3.0712-0.51625 0 0zm-0.97656 2.8457c10.038 76.83-212.75 173.83-69.566 101.78 32.884-25.26 59.133-63.396 69.566-101.78zm-136.52 130.65c-0.51625 3.0712 3.0712-0.51626 0 0zm123.5 22.5c-62.554 112.59-12.418 243.28 109.25 289.82 104.15 58.903 397.5 248.81 350.48 228.26-147.26-98.992-299.71-191.66-442.91-295.86-80.088-63.396-27.82-148.44-16.82-222.23zm-175.85 10.646c-101.65 51.121-194.35 127.61-294.54 186.84-100.95 58.341-187.37 145.77-292.57 192.52-50.194 98.793-185.66 143.92-175.04 274.99 8.1538 98.764-15.18 216.76-128.75 242.4-155.02 86.2-309.79 178.74-457.49 274.03 174.43-111.25 354.11-215.3 534.06-315.82 98.503-87.684 8.2903-242.96 102.28-337.28 74.729-49.461 105.48-140.4 189.7-170.57 156.72-118.17 326.88-219.86 487.82-330.63 11.655-3.6945 30.559-2.4899 34.521-16.477zm-409.19 67.162c17.845 43.69 24.861 46.127 0 0zm381.13 30.908c-35.184 78.207-48.568 123.03-6.2812 15.797l7.1055-15.23zm128.91 31.283c-1.3986 4.982 3.9727-0.19448 0 0zm-1 9c8.8141 113.43 146.22 150.14 224.24 212.62 111.56 59.725 226.08 140.1 332.92 191.56 3.7401 2.2254-204.01-123.94-156.42-90.367-131.27-77.437-269.58-147.17-384.14-249.1-15.935-18.084-12.602-44.638-16.604-64.713zm-756.02 14.846c12.937 116.11 104.19 74.707 168.34 30.689-78.971 33.499-140.6 97.646-168.34-30.689zm1518.2 72.756c-64.856 93.366-51.521 232.67-88.217 340.54 38.293-108.1 25.394-248.66 88.217-340.54zm-1467.2 11.396c-12.172 77.364 24.701 209.33-1.5859 61.051-0.38031-19.565 1.7438-43.235 1.5859-61.051zm1609.1 275.65c-67.147 74.886-41.972 193.83-79.207 284.25-63.083 320.44-115.72 648.29-245.2 949.81-64.758 92.225-135.87 176.68-215.7 255.97-113.97 146.57-253.48 271.72-363.34 421.09-63.067 64.037 119.33 196.48 1.1501 79.172-44.587-96.44 88.36-171.99 137.81-242.61 114.19-117.03 207.64-253.46 329.79-362.67-7.8412 99.803-124.59 206.21-175.56 304.65-74.097 116.16-149.29 233.06-223.61 348-51.069 18.793-9.7354 110.99-17.621 7.2012 89.883-80.105 136.25-213.77 214.46-310.24 68.084-114.28 157.44-223.41 211.66-341.57 40.717-100.79 151.83-206.02 169.32-334.98 107.41-336.09 155.27-687.25 231.32-1030.4 6.4508-9.6512 18.366-20.506 24.725-27.623zm-1100.8 115.19c-128.53 14.012-281.25-2.1141-366.03 117.85-18.726 43.088-136.03 161.26-36.838 161.82-114.63 0.2879 87.837-194.94 26.957-147.87 61.078-99.24 180.37-118.84 287.11-121.36 40.291-11.948 139.63 3.6739 121.52 0.44921-19.112-3.4015-19.543-3.4785-13.222-2.5183 13.908 2.1128 61.25 13.732 13.438 1.5208-9.1883-2.3467-23.578-9.4589-32.937-9.892zm25.826 19.776c-108.31 83.575-196.15 233.81-347.7 228.92-71.26-0.20443 8.4512-13.407 25.105-1.9258 140.2-5.4632 222.1-151.11 322.6-226.99zm-115.03 146.02c-19.395 23.143-115.97 94.899-43.342 41.363 13.807-13.706 31.945-27.602 43.342-41.363zm844.92 90.09c-33.335 29.176 3.3229 5.8524 0 0zm-79.721 64.797c-534.41 92.054-1072.3 177.88-1604.8 271.98 534.11-92.74 1072.7-178.51 1604.8-271.98zm-205.82 60.982c16.526 4.1594 18.845 0.25788 0 0zm206.62-25.757c-263.56 454.92-619.79 900.41-909.3 1336.6 291.74-436.28 648.35-882.78 909.3-1336.6zm-1483.8 96.779c-95.318 28.003-166.86 133.87-265.91 120.06-38.204 14.163-254.32 22.305-136.96 15.08 62.6-0.26998 165.36-15.15 177.27-5.3652 67.745-46.313 151.5-88.445 225.59-129.78zm1572.7 22.299c-126.75 259.97-250.14 521.75-376.36 781.93-88.211 141.46-243.45 222.13-368.51 327.21-126.03 94.183-256.65 182.87-367.96 294.22-98.93 50.19-118.6 46.845-13.701 48.316 71.31-5.6951-78.573-4.0461-55.631-1.3301 100.57-57.284 190.06-169.36 297.9-236.54 159.01-123.94 333.66-233.12 473.13-379.3 104.98-158.33 165.16-342.11 255.31-509.16 51.444-108.36 106.58-217.99 155.82-325.35zm-1771.2 95.824c43.356 29.393 76.139 29.256 0 0zm-46.83 49.201c-99.809 65.677-89.093 149.01 20.943 204.53 182.24 131.89-210.19-152.17-95.234-85.641-40.004-64.64 76.608-60.318 74.291-118.89zm97.477 244.65c-0.117 7.6349 15.094-5.36 0 0zm652.04 11.002c22.473 4.885 47.324 2.8056 0 0zm28.961 2.998c4.1212 9.6981 19.051-7.4239 0 0zm472.5 24.5c-2.5294 7.277 4.9758-0.0835 0 0zm-1.9648 11.818c-25.465 54.591-124.25 133.85-29.199 46.525 11.385-14.044 24.711-30.381 29.199-46.525zm-364.89 326.83c-16.211 8.9714 5.0474 5.1151 0 0zm-9 8c-113.06 108.65-235.26 209.05-346.31 318.81-7.3574 7.4346 134.19-126.8 184.55-168.57 53.157-50.64 111.5-99.097 161.76-150.23zm-335.08 319.11c-21.634 13.334-32.031 126.95-23.049 63.07 2.1082-22.473 14.294-44.607 23.049-63.07zm-42.064 140.2c1.2837 68.467 17.814 139.64 23.77 209.33 55.126 8.8447 81.162 5.0877 8.8144 1.3027-21.163-33.686-14.493-93.698-25.571-137.44-3.7642-24.246-4.7039-48.778-7.0133-73.193zm699.14 153.7c-55.847 44.317 15.152 17.559 0 0zm-432.42 53.801c-56.965 2.8415 221.3 45.442 183.74 28.068 33.238 4.0215 158.71 6.3882 179.05 5.1974-123.79 6.7674-241.13-18.682-362.79-33.266zm-132.26 9.045c-23.684 2.5403-1.2274 1.2862 0.0898 0.996zm597.54 164.5c-5.8034 20.134 7.8698 0.1786 0 0z" fill="#a00909" stop-color="#000000"/>
  </g>
 </g>
</svg>
