<?xml version="1.0" encoding="UTF-8" standalone="no"?>
<!-- Created with Inkscape (http://www.inkscape.org/) -->

<svg
   width="3840"
   height="2160"
   viewBox="0 0 3840 2160"
   version="1.1"
   id="svg1"
   inkscape:version="1.4.2 (f4327f4, 2025-05-13)"
   sodipodi:docname="Fox2.svg"
   inkscape:export-filename="Foxraster.png"
   inkscape:export-xdpi="75"
   inkscape:export-ydpi="75"
   xmlns:inkscape="http://www.inkscape.org/namespaces/inkscape"
   xmlns:sodipodi="http://sodipodi.sourceforge.net/DTD/sodipodi-0.dtd"
   xmlns="http://www.w3.org/2000/svg"
   xmlns:svg="http://www.w3.org/2000/svg">
  <sodipodi:namedview
     id="namedview1"
     pagecolor="#505050"
     bordercolor="#eeeeee"
     borderopacity="1"
     inkscape:showpageshadow="0"
     inkscape:pageopacity="0"
     inkscape:pagecheckerboard="0"
     inkscape:deskcolor="#505050"
     inkscape:document-units="px"
     showgrid="true"
     inkscape:zoom="0.7200079"
     inkscape:cx="1706.2313"
     inkscape:cy="1020.1277"
     inkscape:window-width="2560"
     inkscape:window-height="1361"
     inkscape:window-x="-9"
     inkscape:window-y="-9"
     inkscape:window-maximized="1"
     inkscape:current-layer="layer1">
    <inkscape:grid
       id="grid1"
       units="px"
       originx="0"
       originy="0"
       spacingx="1"
       spacingy="1"
       empcolor="#0099e5"
       empopacity="0.30196078"
       color="#0099e5"
       opacity="0.14901961"
       empspacing="5"
       enabled="true"
       visible="true" />
  </sodipodi:namedview>
  <defs
     id="defs1" />
  <g
     inkscape:label="Calque 1"
     inkscape:groupmode="layer"
     id="layer1"
     transform="translate(-357.16883,194.67661)">
    <g
       id="g596"
       transform="matrix(0.46452101,0,0,0.46452101,2089.7195,655.87478)"
       inkscape:label="Fox">
      <path
         d="m -384.50193,-1207.0391 c 55.20595,212.54346 69.65274,439.72467 124.03125,654.20882 16.81144,43.84273 -49.325,-198.48975 -50.3711,-263.26562 -21.91079,-130.74691 -38.04378,-262.9784 -73.66015,-390.9432 z m 34.92383,25.7715 c 103.28687,169.4977 205.6241,345.46317 307.447269,517.4551 42.04387457,79.59039 -53.419272,134.76214 -115.830099,154.31055 65.248947,-18.65954 158.29458619,-74.91707 116.757829,-154.68555 -102.749649,-172.01383 -201.838139,-347.0272 -308.374999,-517.0801 z m 1002.45149,97.3698 c -40.94971,34.3291 -30.56263,32.111 -35.6957,88.79263 -17.16661,88.63316 -32.99186,180.3158 -83.37307,257.28711 -53.33173,-29.90703 -153.00079,35.71648 -29.73633,-9.18945 55.57838,-2.00853 15.024,58.28453 15.77546,88.90429 -20.25942,70.85045 -8.61908,153.77069 62.85354,192.16407 149.5559,100.07596 310.08673,189.94557 454.74611,293.70312 -151.33936,-114.05841 -325.59326,-200.35134 -478.12893,-314.32422 -82.88961,-64.08638 -33.34242,-170.26059 -22.87102,-254.21289 64.09939,-98.0247 72.06951,-224.51514 96.17413,-331.67486 -1.70746,13.6335 17.93837,-22.9089 20.25581,-11.4498 z m 2.48123,-1.1259 c 133.70451,295.95194 267.141,592.36067 388.26268,893.69948 -23.1947,12.65369 45.8143,35.92591 -4.8086,-15.83398 -121.2292,-295.31596 -249.5198,-588.17758 -383.45408,-877.8655 z m -894.01671,561.65651 c 54.65486,30.76092 98.08891,19.9528 13.91188,10.99474 z M 336.68363,-53.386719 C 217.34894,33.493479 119.58904,198.09488 -44.951144,189.50193 c -94.887406,-10.0819 -82.095896,-6.35744 5.85547,1.32229 C 122.48725,195.58698 221.27993,32.319026 336.68363,-53.386719 Z m 746.66607,65.033203 v 0.002 z m 0,0.002 c 60.9515,53.513002 -6.2621,131.382066 -32.7267,185.015626 -36.4365,40.95861 -68.20098,97.89848 -128.72849,73.19733 -201.28654,25.23917 -402.02964,57.80237 -601.99611,92.98037 -342.879632,38.32246 -680.36134,120.62868 -1022.05082,163.01367 -57.53021,33.54105 -144.67247,119.02751 -65.55272,183.65234 87.228,102.30804 227.78703,67.55601 345.69922,75.99224 265.92687,6.21011 532.29653,3.81742 797.98448,9.00007 31.77684,12.59314 110.20439,-12.57155 102.58208,43.26168 -191.43766,201.07649 -410.606898,374.31039 -606.90627,570.87699 -63.8263,45.663 -139.99914,98.567 -127.1543,189.3613 5.55248,76.5666 16.45571,156.8989 36.22271,228.9922 54.48042,40.9148 -44.62213,-37.5331 -16.5645,-86.0879 -17.01876,-95.926 -49.95689,-232.781 56.12896,-291.1621 141.489004,-114.2286 266.430515,-249.7427 405.05666,-368.3789 85.04269,-83.1596 186.99252,-155.49401 256.15624,-251.34183 -3.8291,-49.56898 -70.69433,-22.24416 -100.42394,-35.68173 -201.08021,-7.30196 -403.058376,-1.42615 -604.48684,-7.20703 -153.09623,-7.71837 -309.64058,8.29275 -460.67333,-17.99609 -67.82345,-28.65398 -173.42336,-130.61327 -73.5,-190.85938 33.07068,-80.88133 134.2024,-50.54311 200.66015,-71.61718 309.711,-49.828 617.794909,-112.97504 929.01956,-151.33594 190.26973,-33.54024 381.09468,-65.33771 572.91212,-85.79301 72.22154,21.22483 114.31664,-95.18831 144.61524,-144.32812 22.5737,-37.10547 33.1699,-82.662353 -6.2734,-113.554606 z M -4.8495801,166.52344 c 27.7335091,22.45045 33.0274691,21.12529 0,0 z M 970.50397,276.9375 C 949.28449,372.67855 872.92487,444.49978 827.57818,529.73047 579.96697,901.27392 314.48036,1263.859 55.38675,1625.3164 361.30396,1201.4428 671.63306,779.55424 952.26764,338.24805 962.65277,320.80168 968.27035,294.83953 970.50397,276.9375 Z M -837.99999,633.5 c 29.29213,3.45804 48.41423,0.24322 4.37929,0 z m 1508.63285,577.1621 c -120.94787,163.5685 -305.82282,263.6772 -459.93361,392.6055 -83.98308,70.3513 -187.524345,127.4903 -252.628909,215.2187 -93.097221,29.1954 -79.034451,33.7291 1.396484,-1.3047 90.005669,-108.2345 220.066905,-181.4265 328.847665,-271.625 128.7638,-108.0231 286.97371,-195.0459 382.31837,-334.8945 z m -713.343769,612.9297 c 11.344193,7.304 27.758404,5.3077 0,0 z m -139.207031,16.9141 c 36.13272,7.9257 73.36855,1.4811 11.97069,1.9961 l -8.21452,-1.3698 z"
         style="baseline-shift:baseline;display:inline;overflow:visible;opacity:1;vector-effect:none;fill:#ffffff;stroke-width:1;enable-background:accumulate;stop-color:#000000;stop-opacity:1"
         id="path596"
         sodipodi:nodetypes="scssssssssssssssssssssssssssssssssssssccssssssssssssssssssssssssssssssssssssssccs" />
      <path
         d="m 655.55685,-1180.9377 c 106.24108,72.3958 188.60284,200.30691 283.44907,296.25801 110.01428,113.3611 205.01178,243.86241 306.89058,361.76563 26.9294,107.3449 137.1538,193.78449 143.6895,313.96484 67.7379,74.46287 122.2876,172.706322 162.8786,269.486772 68.623,153.885268 89.6318,325.469758 104.1741,489.808148 -6.0857,58.63239 -8.5357,146.77839 -24.0505,214.5918 -64.724,364.6122 -275.3001,711.7313 -589.8204,912.3984 -148.30127,64.9487 -262.57434,209.4519 -430.69725,225.9473 -101.43978,-61.0192 -108.09152,189.0024 -190.77734,65.4648 -59.91937,-34.3052 -11.37444,-187.0507 -18.37404,-136.2955 -48.90929,46.9248 27.43754,206.9551 87.12013,159.8053 31.94365,-131.6047 161.17406,-62.936 249.18556,-126.5879 125.63588,-71.2342 241.05188,-157.7426 367.12964,-228.2215 329.7396,-249.7659 536.6799,-655.03631 547.452,-1068.2902 10.6527,-42.70496 -11.3549,-119.35358 -12.3923,-175.21294 -27.0855,-208.25136 -101.0446,-414.482464 -230.1133,-581.20508 -51.1075,-76.44319 -69.2689,-198.60109 -138.3164,-277.0371 -36.2183,-94.61943 -125.2549,-167.98756 -187.7189,-254.99805 C 956.21364,-876.89422 811.85447,-1022.3856 681.30474,-1177.9805 l -13.18992,-3.1407 z m -969.17597,-26.3865 c 97.88778,88.6479 222.092359,153.176 327.812292,236.15111 66.29419,66.09195 260.676438,123.22271 238.601778,217.46606 -91.91704,40.79668 -166.196774,121.92642 -258.6132802,156.45117 -33.6847818,46.61885 -124.2781498,92.33322 -24.5653948,29.79225 69.529667,-71.37801 176.514325,-102.49498 253.503605,-172.84913 53.16132,-59.97425 135.38697,-18.15885 175.13994,40.4104 -4.14052,106.6637 -67.41319,248.35092 69.47264,306.29687 207.9382,114.48455 396.14911,265.38694 601.21874,383.185548 59.355,-10.50064 69.0255,118.533292 46.7989,23.017578 C 947.59576,-76.296097 788.98985,-193.51208 627.72899,-298.46922 544.20029,-372.53689 374.98673,-398.08109 377.49613,-535.94336 400.2086,-621.37144 433.06271,-743.54742 311.14457,-766.78516 202.52058,-820.7134 112.07047,-925.59314 -1.7128612,-983.10352 -101.79765,-1063.116 -218.51199,-1122.2904 -313.61912,-1207.3242 Z m 969.32034,24.9238 c -39.84548,57.437 61.59771,128.7459 65.44922,197.59376 108.56755,259.25711 223.54636,515.26141 335.37496,772.96484 50.7288,153.130641 -127.99826,-339.84367 -76.51599,-181.65279 -118.21717,-246.31119 -212.7416,-504.83089 -330.00939,-750.92781 -18.75486,-4.4802 -3.17009,-34.0252 5.7012,-37.978 z m -15.66512,30.1857 c -7.58996,44.2814 11.56433,98.0546 -1.2384,22.8045 0.45533,-2.2801 0.58947,-34.3452 1.2384,-22.8045 z m 6.46395,77.1913 c -16.9293,86.84233 -20.25112,125.50547 0,0 z m -18,88.0234 c -0.51625,3.0712 3.0712,-0.51625 0,0 z m -50,111 c -0.51625,3.0712 3.0712,-0.51625 0,0 z m -0.97656,2.8457 c 10.03826,76.83046 -212.74633,173.82777 -69.56645,101.77738 32.88444,-25.26014 59.13347,-63.39559 69.56645,-101.77738 z M 441.00004,-742.5 c -0.51625,3.07121 3.07122,-0.51626 0,0 z m 123.50001,22.5 c -62.55385,112.5921 -12.41832,243.28338 109.25004,289.82227 104.15275,58.90264 397.50391,248.81318 350.48041,228.26171 C 876.96628,-300.90789 724.51873,-393.57827 581.3204,-497.77344 501.23214,-561.16903 553.50035,-646.2152 564.50005,-720 Z m -175.85353,10.64648 c -101.64561,51.12136 -194.35135,127.61366 -294.538394,186.84284 -100.9493717,58.34146 -187.367292,145.76589 -292.572946,192.52045 -50.19372,98.79286 -185.65734,143.91714 -175.03516,274.986324 8.15377,98.763856 -15.18005,216.755016 -128.74806,242.402346 -155.01701,86.19987 -309.78586,178.74028 -457.49219,274.02929 174.42533,-111.25153 354.1083,-215.29517 534.06055,-315.82226 98.503,-87.684448 8.29031,-242.958492 102.28322,-337.28125 74.72923,-49.46097 105.47832,-140.39675 189.70313,-170.56836 156.724863,-118.16816 326.88414,-219.85565 487.81837,-330.63281 11.65539,-3.69453 30.5594,-2.4899 34.52148,-16.47657 z m -409.185553,67.16211 c 17.8445288,43.68964 24.8614419,46.12656 0,0 z m 381.126963,30.90821 c -35.18401,78.20697 -48.56778,123.0269 -6.28125,15.79687 l 7.10547,-15.23047 z M 489.50004,-580 c -1.3986,4.98203 3.97266,-0.19448 0,0 z m -1,9 c 8.81407,113.4294 146.22415,150.13794 224.24221,212.62305 111.56106,59.72463 226.08407,140.10263 332.91795,191.55664 3.7401,2.22539 -204.01456,-123.94428 -156.4158,-90.36719 C 757.97309,-334.62497 619.66722,-404.36098 505.10376,-506.28711 489.16885,-524.37132 492.50182,-550.92498 488.50004,-571 Z m -756.02346,14.8457 c 12.93663,116.11241 104.18789,74.70702 168.341805,30.68946 -78.970885,33.49918 -140.603465,97.64636 -168.341805,-30.68946 z m 1518.22072,72.75586 c -64.8565,93.36564 -51.5208,232.66656 -88.2167,340.53516 38.2926,-108.10205 25.3937,-248.66403 88.2167,-340.53516 z m -1467.19728,11.39649 c -12.17206,77.36414 24.70058,209.33331 -1.58594,61.05078 -0.38031,-19.5647 1.74381,-43.23506 1.58594,-61.05078 z m 1609.14658,275.64843 c -67.1469,74.88554 -41.9715,193.8250061 -79.2074,284.249526 -63.0828,320.435204 -115.7167,648.285774 -245.2008,949.805194 -64.7583,92.2253 -135.87065,176.6802 -215.69733,255.9687 -113.96726,146.572 -253.47688,271.7166 -363.3379,421.086 -63.06685,64.0369 119.33154,196.4753 1.15008,79.1722 -44.58722,-96.4399 88.35993,-171.9922 137.8089,-242.6078 114.19116,-117.0282 207.64026,-253.4603 329.79103,-362.6719 -7.84115,99.8029 -124.58519,206.2141 -175.55799,304.6477 -74.09685,116.1557 -149.29322,233.0641 -223.60803,348.0027 -51.06892,18.7931 -9.73543,110.9857 -17.6211,7.2012 89.88256,-80.1051 136.2535,-213.7672 214.45508,-310.2402 68.08354,-114.2752 157.43634,-223.4146 211.66017,-341.5703 40.71689,-100.7855 151.83219,-206.01618 169.31629,-334.97532 107.4072,-336.09344 155.2653,-687.24981 231.3244,-1030.44465 6.4508,-9.65116 18.3657,-20.50586 24.7246,-27.62305 z M 291.86353,-81.166888 C 163.33489,-67.155108 10.610949,-83.280954 -74.162082,36.679691 -92.88786,79.767321 -210.19051,197.9367 -110.99997,198.5 -225.63221,198.7879 -23.162831,3.5580138 -84.042928,50.631156 -22.964766,-48.609242 96.32721,-68.210389 203.06839,-70.726562 c 40.2908,-11.947727 139.63443,3.673942 121.51563,0.449212 -19.11216,-3.401525 -19.54277,-3.478526 -13.22203,-2.518333 13.90791,2.112769 61.25048,13.732048 13.43826,1.520768 -9.18833,-2.346705 -23.57795,-9.45892 -32.93672,-9.891973 z m 25.82596,19.776263 C 209.37632,22.184537 121.53547,172.41643 -30.01169,167.52731 -101.2715,167.32288 -21.560459,154.12029 -4.9062187,165.60153 135.29822,160.13834 217.19304,14.48846 317.68949,-61.390625 Z M 202.6602,84.632812 C 183.26538,107.77613 86.690422,179.53181 159.31839,125.99609 173.12551,112.29006 191.26327,98.393635 202.6602,84.632812 Z m 844.9239,90.089848 c -33.335,29.1763 3.3229,5.85238 0,0 z m -79.72076,64.79687 C 433.45713,331.57385 -104.43816,417.40362 -636.97458,511.5 -102.86652,418.75983 435.76784,332.98719 967.86334,239.51953 Z m -205.82422,60.98242 c 16.52586,4.15936 18.84482,0.25788 0,0 z M 968.6614,274.74491 C 705.10478,729.66224 348.87374,1175.153 59.363312,1611.3438 351.10081,1175.0681 707.71799,728.56804 968.6614,274.74491 Z m -1483.80983,96.77853 c -95.31757,28.00321 -166.85958,133.87286 -265.90625,120.0625 -38.20351,14.16289 -254.32002,22.30526 -136.95709,15.08002 62.59973,-0.26998 165.36143,-15.15004 177.2715,-5.36524 67.74471,-46.31298 151.4972,-88.44506 225.59184,-129.77728 z M 1057.5333,393.82227 C 930.78091,653.79386 807.39169,915.57631 681.17778,1175.75 c -88.2111,141.4603 -243.44919,222.1346 -368.51481,327.2087 -126.02782,94.1828 -256.650292,182.8676 -367.961771,294.2249 -98.929839,50.19 -118.598149,46.8454 -13.701172,48.3164 71.3097984,-5.6951 -78.572887,-4.0461 -55.630867,-1.3301 100.566415,-57.284 190.064803,-169.3557 297.90219,-236.5421 159.01497,-123.9382 333.65847,-233.117 473.12693,-379.2993 C 751.38241,1070.0001 811.55795,886.2203 901.71293,719.17155 953.15699,610.80991 1008.2896,501.18318 1057.5333,393.82227 Z m -1771.17977,95.82421 c 43.3564,29.39339 76.13924,29.25598 0,0 z m -46.83008,49.20118 c -99.80864,65.67709 -89.09267,149.01335 20.94322,204.53327 182.24338,131.88915 -210.19042,-152.17091 -95.23415,-85.6407 -40.00428,-64.63989 76.60804,-60.31817 74.29093,-118.89257 z M -662.99999,783.5 c -0.117,7.63492 15.09414,-5.36005 0,0 z m 652.039081,11.00195 c 22.47282,4.88496 47.324141,2.80565 0,0 z M 18.00003,797.5 c 4.121185,9.6981 19.050995,-7.42387 0,0 z M 490.50005,822 c -2.52935,7.27699 4.97582,-0.0835 0,0 z m -1.96485,11.81836 c -25.46526,54.59068 -124.25426,133.84779 -29.19922,46.52539 11.38504,-14.04355 24.71074,-30.38077 29.19922,-46.52539 z M 123.64651,1160.6465 c -16.2114,8.9714 5.04741,5.1151 0,0 z m -8.99999,8 c -113.0642825,108.6502 -235.25881,209.0508 -346.30806,318.806 -7.35741,7.4346 134.193097,-126.7981 184.546387,-168.5725 53.1566655,-50.6398 111.500516,-99.0972 161.761673,-150.2335 z m -335.084,319.1113 c -21.63363,13.334 -32.03059,126.9519 -23.04884,63.07 2.10816,-22.4734 14.29403,-44.6071 23.04884,-63.07 z m -42.06445,140.2012 c 1.28367,68.4674 17.81408,139.6372 23.76953,209.3262 55.12568,8.8447 81.16241,5.0877 8.81445,1.3027 -21.16331,-33.6863 -14.4934,-93.6981 -25.57068,-137.4355 -3.76424,-24.2458 -4.70393,-48.7779 -7.0133,-73.1934 z m 699.13869,153.6973 c -55.84683,44.3172 15.15225,17.5586 0,0 z M 4.2168265,1835.457 c -56.9645385,2.8415 221.2990335,45.4416 183.7402335,28.0684 33.23818,4.0215 158.70753,6.3882 179.0547,5.1974 -123.79206,6.7674 -241.13087,-18.6823 -362.7949335,-33.2658 z m -132.2617265,9.045 c -23.68374,2.5403 -1.22745,1.2862 0.0898,0.996 z M 469.50004,2009 c -5.80344,20.1342 7.86977,0.1786 0,0 z"
         style="baseline-shift:baseline;display:inline;overflow:visible;opacity:1;vector-effect:none;fill:#a00909;stroke-width:1;enable-background:accumulate;stop-color:#000000;stop-opacity:1"
         id="path595"
         sodipodi:nodetypes="sssssssssssssssssssssssssssssssssssssssssssssssssssssssssssssscssssssssscsssscsssssssssssssssssssssscssssssssssssssssssssssssssssssssssssssssssssssssscssssssssssssssssscsccsssssssssssssssssssssss" />
    </g>
  </g>
</svg>
